<svg width="12" height="12" viewBox="0 0 12 12" fill="none" xmlns="http://www.w3.org/2000/svg">
<path d="M5.9732 3.11338C6.61504 3.11338 7.13536 2.59307 7.13536 1.95122C7.13536 1.30938 6.61504 0.789062 5.9732 0.789062C5.33135 0.789062 4.81104 1.30938 4.81104 1.95122C4.81104 2.59307 5.33135 3.11338 5.9732 3.11338Z" fill="white"/>
<path d="M6.86633 1.95109C6.86095 2.31695 6.64036 2.65323 6.29601 2.78504C5.93822 2.92224 5.52662 2.81195 5.28181 2.51872C5.04508 2.23356 5.01548 1.81927 5.20111 1.49914C5.38673 1.18169 5.75798 1.00414 6.12115 1.06871C6.55158 1.14403 6.85826 1.51797 6.86633 1.95109C6.87171 2.29812 7.40975 2.29812 7.40437 1.95109C7.39361 1.34041 7.01429 0.805067 6.43859 0.597922C5.89249 0.401539 5.24684 0.584471 4.87829 1.03104C4.49359 1.49644 4.42902 2.16899 4.74647 2.69089C5.06122 3.21278 5.67189 3.46835 6.26642 3.35536C6.9309 3.22893 7.39361 2.61556 7.40437 1.95378C7.40975 1.60405 6.87171 1.60405 6.86633 1.95109Z" fill="white"/>
<path d="M5.9732 7.19151C6.61504 7.19151 7.13536 6.67119 7.13536 6.02935C7.13536 5.3875 6.61504 4.86719 5.9732 4.86719C5.33135 4.86719 4.81104 5.3875 4.81104 6.02935C4.81104 6.67119 5.33135 7.19151 5.9732 7.19151Z" fill="white"/>
<path d="M6.86633 6.02921C6.86095 6.39508 6.64036 6.73135 6.29601 6.86317C5.93822 7.00037 5.52662 6.89007 5.28181 6.59684C5.04508 6.31168 5.01548 5.89739 5.20111 5.57726C5.38673 5.25982 5.75798 5.08227 6.12115 5.14683C6.55158 5.21947 6.85826 5.59609 6.86633 6.02921C6.87171 6.37625 7.40975 6.37625 7.40437 6.02921C7.39361 5.41854 7.01429 4.88319 6.43859 4.67605C5.89249 4.47966 5.24684 4.6626 4.87829 5.10917C4.49359 5.57457 4.42902 6.24712 4.74647 6.76901C5.06122 7.29091 5.67189 7.54648 6.26642 7.43349C6.9309 7.30705 7.39361 6.69369 7.40437 6.0319C7.40975 5.68218 6.87171 5.68218 6.86633 6.02921Z" fill="white"/>
<path d="M5.9732 11.381C6.61504 11.381 7.13536 10.8606 7.13536 10.2188C7.13536 9.57696 6.61504 9.05664 5.9732 9.05664C5.33135 9.05664 4.81104 9.57696 4.81104 10.2188C4.81104 10.8606 5.33135 11.381 5.9732 11.381Z" fill="white"/>
<path d="M6.86633 10.2187C6.86095 10.5845 6.64036 10.9208 6.29601 11.0526C5.93822 11.1898 5.52662 11.0795 5.28181 10.7863C5.04508 10.5011 5.01548 10.0868 5.20111 9.76671C5.38673 9.44927 5.75798 9.27172 6.12115 9.33628C6.55158 9.40892 6.85826 9.78554 6.86633 10.2187C6.87171 10.5657 7.40975 10.5657 7.40437 10.2187C7.39361 9.60799 7.01429 9.07264 6.43859 8.8655C5.89249 8.66912 5.24684 8.85205 4.87829 9.29862C4.49359 9.76402 4.42902 10.4366 4.74647 10.9585C5.06122 11.4804 5.67189 11.7359 6.26642 11.6229C6.9309 11.4965 7.39361 10.8831 7.40437 10.2214C7.40975 9.87163 6.87171 9.87163 6.86633 10.2187Z" fill="white"/>
<path d="M10.0442 3.11338C10.6861 3.11338 11.2064 2.59307 11.2064 1.95122C11.2064 1.30938 10.6861 0.789062 10.0442 0.789062C9.4024 0.789062 8.88208 1.30938 8.88208 1.95122C8.88208 2.59307 9.4024 3.11338 10.0442 3.11338Z" fill="white"/>
<path d="M10.9374 1.95109C10.932 2.31695 10.7114 2.65323 10.3671 2.78504C10.0093 2.92224 9.59767 2.81195 9.35286 2.51872C9.11612 2.23356 9.08653 1.81927 9.27215 1.49914C9.45778 1.18169 9.82902 1.00414 10.1922 1.06871C10.6226 1.14403 10.9293 1.51797 10.9374 1.95109C10.9428 2.29812 11.4808 2.29812 11.4754 1.95109C11.4647 1.34041 11.0853 0.805067 10.5096 0.597922C9.96353 0.401539 9.31789 0.584471 8.94933 1.03104C8.56463 1.49644 8.50007 2.16899 8.81751 2.69089C9.13226 3.21278 9.74294 3.46835 10.3375 3.35536C11.0019 3.22893 11.4647 2.61556 11.4754 1.95378C11.4808 1.60405 10.9428 1.60405 10.9374 1.95109Z" fill="white"/>
<path d="M10.0442 7.19151C10.6861 7.19151 11.2064 6.67119 11.2064 6.02935C11.2064 5.3875 10.6861 4.86719 10.0442 4.86719C9.4024 4.86719 8.88208 5.3875 8.88208 6.02935C8.88208 6.67119 9.4024 7.19151 10.0442 7.19151Z" fill="white"/>
<path d="M10.9374 6.02921C10.932 6.39508 10.7114 6.73135 10.3671 6.86317C10.0093 7.00037 9.59767 6.89007 9.35286 6.59684C9.11612 6.31168 9.08653 5.89739 9.27215 5.57726C9.45778 5.25982 9.82902 5.08227 10.1922 5.14683C10.6226 5.21947 10.9293 5.59609 10.9374 6.02921C10.9428 6.37625 11.4808 6.37625 11.4754 6.02921C11.4647 5.41854 11.0853 4.88319 10.5096 4.67605C9.96353 4.47966 9.31789 4.6626 8.94933 5.10917C8.56463 5.57457 8.50007 6.24712 8.81751 6.76901C9.13226 7.29091 9.74294 7.54648 10.3375 7.43349C11.0019 7.30705 11.4647 6.69369 11.4754 6.0319C11.4808 5.68218 10.9428 5.68218 10.9374 6.02921Z" fill="white"/>
<path d="M10.0442 11.381C10.6861 11.381 11.2064 10.8606 11.2064 10.2188C11.2064 9.57696 10.6861 9.05664 10.0442 9.05664C9.4024 9.05664 8.88208 9.57696 8.88208 10.2188C8.88208 10.8606 9.4024 11.381 10.0442 11.381Z" fill="white"/>
<path d="M10.9374 10.2187C10.932 10.5845 10.7114 10.9208 10.3671 11.0526C10.0093 11.1898 9.59767 11.0795 9.35286 10.7863C9.11612 10.5011 9.08653 10.0868 9.27215 9.76671C9.45778 9.44927 9.82902 9.27172 10.1922 9.33628C10.6226 9.40892 10.9293 9.78554 10.9374 10.2187C10.9428 10.5657 11.4808 10.5657 11.4754 10.2187C11.4647 9.60799 11.0853 9.07264 10.5096 8.8655C9.96353 8.66912 9.31789 8.85205 8.94933 9.29862C8.56463 9.76402 8.50007 10.4366 8.81751 10.9585C9.13226 11.4804 9.74294 11.7359 10.3375 11.6229C11.0019 11.4965 11.4647 10.8831 11.4754 10.2214C11.4808 9.87163 10.9428 9.87163 10.9374 10.2187Z" fill="white"/>
<path d="M1.90215 3.12901C2.54399 3.12901 3.06431 2.60869 3.06431 1.96685C3.06431 1.325 2.54399 0.804688 1.90215 0.804688C1.26031 0.804688 0.73999 1.325 0.73999 1.96685C0.73999 2.60869 1.26031 3.12901 1.90215 3.12901Z" fill="white"/>
<path d="M2.79529 1.96671C2.78991 2.33258 2.56931 2.66885 2.22497 2.80067C1.86717 2.93787 1.45558 2.82757 1.21077 2.53434C0.974032 2.24918 0.94444 1.83489 1.13006 1.51476C1.31569 1.19732 1.68693 1.01977 2.05011 1.08433C2.48323 1.15966 2.78991 1.53359 2.79529 1.96671C2.80067 2.31375 3.33871 2.31375 3.33333 1.96671C3.32257 1.35604 2.94325 0.820692 2.36755 0.613547C1.82144 0.417164 1.1758 0.600097 0.80724 1.04667C0.422544 1.51207 0.357979 2.18462 0.675421 2.70651C0.990173 3.22841 1.60085 3.48398 2.19538 3.37099C2.85985 3.24455 3.32257 2.63119 3.33333 1.9694C3.33871 1.61968 2.80067 1.61968 2.79529 1.96671Z" fill="white"/>
<path d="M1.90215 7.20713C2.54399 7.20713 3.06431 6.68682 3.06431 6.04497C3.06431 5.40313 2.54399 4.88281 1.90215 4.88281C1.26031 4.88281 0.73999 5.40313 0.73999 6.04497C0.73999 6.68682 1.26031 7.20713 1.90215 7.20713Z" fill="white"/>
<path d="M2.79529 6.04484C2.78991 6.4107 2.56931 6.74698 2.22497 6.87879C1.86717 7.01599 1.45558 6.9057 1.21077 6.61247C0.974032 6.32731 0.94444 5.91302 1.13006 5.59289C1.31569 5.27544 1.68693 5.09789 2.05011 5.16246C2.48323 5.23778 2.78991 5.61172 2.79529 6.04484C2.80067 6.39187 3.33871 6.39187 3.33333 6.04484C3.32257 5.43416 2.94325 4.89882 2.36755 4.69167C1.82144 4.49529 1.1758 4.67822 0.80724 5.12479C0.422544 5.59019 0.357979 6.26274 0.675421 6.78464C0.990173 7.30653 1.60085 7.5621 2.19538 7.44911C2.85985 7.32268 3.32257 6.70931 3.33333 6.04753C3.33871 5.6978 2.80067 5.6978 2.79529 6.04484Z" fill="white"/>
<path d="M1.90215 11.3966C2.54399 11.3966 3.06431 10.8763 3.06431 10.2344C3.06431 9.59258 2.54399 9.07227 1.90215 9.07227C1.26031 9.07227 0.73999 9.59258 0.73999 10.2344C0.73999 10.8763 1.26031 11.3966 1.90215 11.3966Z" fill="white"/>
<path d="M2.79529 10.2343C2.78991 10.6002 2.56931 10.9364 2.22497 11.0682C1.86717 11.2054 1.45558 11.0951 1.21077 10.8019C0.974032 10.5168 0.94444 10.1025 1.13006 9.78234C1.31569 9.4649 1.68693 9.28734 2.05011 9.35191C2.48323 9.42454 2.78991 9.80117 2.79529 10.2343C2.80067 10.5813 3.33871 10.5813 3.33333 10.2343C3.32257 9.62362 2.94325 9.08827 2.36755 8.88113C1.82144 8.68474 1.1758 8.86767 0.80724 9.31425C0.422544 9.77965 0.357979 10.4522 0.675421 10.9714C0.990173 11.4933 1.60085 11.7489 2.19538 11.6359C2.85985 11.5094 3.32257 10.8961 3.33333 10.2343C3.33871 9.88726 2.80067 9.88726 2.79529 10.2343Z" fill="white"/>
</svg>
