<?xml version="1.0" encoding="UTF-8"?>
<!DOCTYPE svg PUBLIC "-//W3C//DTD SVG 1.1//EN" "http://www.w3.org/Graphics/SVG/1.1/DTD/svg11.dtd">
<svg xmlns="http://www.w3.org/2000/svg" version="1.1" width="233px" height="114px" style="shape-rendering:geometricPrecision; text-rendering:geometricPrecision; image-rendering:optimizeQuality; fill-rule:evenodd; clip-rule:evenodd" xmlns:xlink="http://www.w3.org/1999/xlink">
<g><path style="opacity:0.999" fill="#179abc" d="M 114.5,48.5 C 108.102,53.8959 102.435,59.8959 97.5,66.5C 96.8333,66.5 96.5,66.1667 96.5,65.5C 96.5,64.1667 96.5,62.8333 96.5,61.5C 97.404,60.791 97.7373,59.791 97.5,58.5C 116.747,39.0245 138.747,23.1911 163.5,11C 170.92,7.86013 178.586,5.5268 186.5,4C 205.079,1.33083 211.246,8.83083 205,26.5C 201.706,33.594 197.54,40.094 192.5,46C 190.098,46.8141 187.765,46.6474 185.5,45.5C 201.54,17.7279 194.207,8.22794 163.5,17C 145.096,24.5199 128.763,35.0199 114.5,48.5 Z"/></g>
<g><path style="opacity:0.999" fill="#fff" d="M 50.5,64.5 C 50.7373,65.791 50.404,66.791 49.5,67.5C 49.631,66.7611 49.4643,66.0944 49,65.5C 48.0256,69.4208 46.859,73.2541 45.5,77C 38.1667,77.6667 30.8333,77.6667 23.5,77C 22.0692,76.5348 20.9025,75.7014 20,74.5C 17.8165,62.54 22.6499,55.8733 34.5,54.5C 36.6397,54.5561 38.3064,55.2227 39.5,56.5C 40.4131,54.0667 41.4131,51.5667 42.5,49C 46.2113,48.1747 49.878,48.3414 53.5,49.5C 52.0675,53.9649 50.7341,58.4649 49.5,63C 49.5699,63.7648 49.9033,64.2648 50.5,64.5 Z M 39.5,56.5 C 38.6519,61.2258 37.4852,65.8924 36,70.5C 33.8806,73.4774 32.7139,73.144 32.5,69.5C 32.8595,66.9209 33.5262,64.4209 34.5,62C 36.7062,60.5845 38.3729,58.7512 39.5,56.5 Z"/></g>
<g><path style="opacity:1" fill="#12a6ca" d="M 97.5,58.5 C 96.596,59.209 96.2627,60.209 96.5,61.5C 95.5655,62.5676 95.2322,63.901 95.5,65.5C 94.6908,67.0276 94.0241,68.6943 93.5,70.5C 98.0937,70.8651 102.427,71.8651 106.5,73.5C 106.5,74.8333 106.5,76.1667 106.5,77.5C 97.1429,77.8316 87.8096,77.4983 78.5,76.5C 79.6416,73.6008 80.3083,70.6008 80.5,67.5C 81.404,66.791 81.7373,65.791 81.5,64.5C 83.0731,59.3999 84.7397,54.2332 86.5,49C 90.8713,48.1725 95.2047,48.3391 99.5,49.5C 98.3584,52.3992 97.6917,55.3992 97.5,58.5 Z"/></g>
<g><path style="opacity:1" fill="#14a4c8" d="M 114.5,48.5 C 123.833,48.5 133.167,48.5 142.5,48.5C 141.573,54.8111 141.406,61.1444 142,67.5C 145.039,61.2551 148.206,55.0884 151.5,49C 165.163,48.5001 178.829,48.3334 192.5,48.5C 192.768,50.099 192.434,51.4324 191.5,52.5C 191.5,51.5 191.5,50.5 191.5,49.5C 182.833,49.5 174.167,49.5 165.5,49.5C 164.833,49.5 164.5,49.8333 164.5,50.5C 163.833,50.5 163.5,50.8333 163.5,51.5C 158.727,60.1129 153.727,68.6129 148.5,77C 142.251,77.8087 136.084,77.642 130,76.5C 129.541,67.4844 128.874,58.4844 128,49.5C 125.654,58.5499 123.154,67.5499 120.5,76.5C 116.217,77.4922 111.884,77.8256 107.5,77.5C 109.99,67.8749 112.323,58.2082 114.5,48.5 Z"/></g>
<g><path style="opacity:1" fill="#12a8cd" d="M 165.5,49.5 C 174.167,49.5 182.833,49.5 191.5,49.5C 191.5,50.5 191.5,51.5 191.5,52.5C 191.5,53.5 191.5,54.5 191.5,55.5C 186.5,55.5 181.5,55.5 176.5,55.5C 176.5,56.8333 176.5,58.1667 176.5,59.5C 175.662,59.8417 175.328,60.5084 175.5,61.5C 174.662,61.8417 174.328,62.5084 174.5,63.5C 174.5,64.1667 174.5,64.8333 174.5,65.5C 173.833,65.5 173.5,65.8333 173.5,66.5C 173.5,67.5 173.5,68.5 173.5,69.5C 172.957,69.56 172.624,69.8933 172.5,70.5C 177.12,71.4933 181.786,71.8266 186.5,71.5C 186.167,73.5 185.833,75.5 185.5,77.5C 176.161,77.6665 166.827,77.4998 157.5,77C 160.064,68.9105 162.398,60.7438 164.5,52.5C 165.338,52.1583 165.672,51.4916 165.5,50.5C 165.5,50.1667 165.5,49.8333 165.5,49.5 Z"/></g>
<g><path style="opacity:0.016" fill="#0c191a" d="M 163.5,51.5 C 163.5,50.8333 163.833,50.5 164.5,50.5C 164.833,50.5 165.167,50.5 165.5,50.5C 165.672,51.4916 165.338,52.1583 164.5,52.5C 164.5,51.8333 164.167,51.5 163.5,51.5 Z"/></g>
<g><path style="opacity:0.999" fill="#fff" d="M 81.5,64.5 C 80.596,65.209 80.2627,66.209 80.5,67.5C 74.7311,69.0564 69.0644,68.7231 63.5,66.5C 61.2948,68.7493 61.2948,70.7493 63.5,72.5C 64.646,71.8551 65.646,71.0217 66.5,70C 70.8333,69.3333 75.1667,69.3333 79.5,70C 75.2528,75.4571 69.5861,78.2904 62.5,78.5C 58.6686,78.0301 55.0019,77.0301 51.5,75.5C 49.7711,73.1489 49.1044,70.4822 49.5,67.5C 50.404,66.791 50.7373,65.791 50.5,64.5C 53.5933,56.6952 59.4266,53.3619 68,54.5C 72.1128,54.1921 75.9461,55.0254 79.5,57C 81.1134,59.2276 81.78,61.7276 81.5,64.5 Z M 66.5,59.5 C 68.1042,60.287 68.7709,61.6203 68.5,63.5C 62.6494,64.244 61.9827,62.9106 66.5,59.5 Z"/></g>
<g><path style="opacity:0.999" fill="#fff" d="M 192.5,54.5 C 199.167,54.5 205.833,54.5 212.5,54.5C 213.151,59.2958 211.318,60.9624 207,59.5C 205.018,59.9903 203.351,60.9903 202,62.5C 200.667,67.1667 199.333,71.8333 198,76.5C 194.214,77.7948 190.38,77.7948 186.5,76.5C 188.815,69.241 190.815,61.9077 192.5,54.5 Z"/></g>
<g><path style="opacity:0.998" fill="#fff" d="M 176.5,59.5 C 180.167,59.5 183.833,59.5 187.5,59.5C 187.326,61.861 186.993,64.1944 186.5,66.5C 182.167,66.5 177.833,66.5 173.5,66.5C 173.5,65.8333 173.833,65.5 174.5,65.5C 175.833,64.8333 175.833,64.1667 174.5,63.5C 174.328,62.5084 174.662,61.8417 175.5,61.5C 176.338,61.1583 176.672,60.4916 176.5,59.5 Z"/></g>
<g><path style="opacity:0.235" fill="#10242b" d="M 95.5,65.5 C 95.8333,65.5 96.1667,65.5 96.5,65.5C 96.5,66.1667 96.8333,66.5 97.5,66.5C 96.0119,69.1864 95.3453,68.8531 95.5,65.5 Z"/></g>
<g><path style="opacity:0.349" fill="#083a44" d="M 93.5,70.5 C 98.1667,70.5 102.833,70.5 107.5,70.5C 107.737,71.791 107.404,72.791 106.5,73.5C 102.427,71.8651 98.0937,70.8651 93.5,70.5 Z"/></g>
<g><path style="opacity:0.349" fill="#093b46" d="M 173.5,69.5 C 177.833,70.1667 182.167,70.8333 186.5,71.5C 181.786,71.8266 177.12,71.4933 172.5,70.5C 172.624,69.8933 172.957,69.56 173.5,69.5 Z"/></g>
<g><path style="opacity:0.149" fill="#0e2024" d="M 80.5,79.5 C 83.3553,78.1968 86.3553,78.1968 89.5,79.5C 89.3764,80.1067 89.0431,80.44 88.5,80.5C 86.0521,79.5269 83.3854,79.1936 80.5,79.5 Z"/></g>
<g><path style="opacity:0.072" fill="#0f181a" d="M 151.5,79.5 C 153.364,78.2072 155.364,78.2072 157.5,79.5C 157.376,80.1067 157.043,80.44 156.5,80.5C 155.081,79.5489 153.415,79.2155 151.5,79.5 Z"/></g>
<g><path style="opacity:0.999" fill="#179dbf" d="M 80.5,79.5 C 83.3854,79.1936 86.0521,79.5269 88.5,80.5C 85.5024,86.3095 85.0024,92.3095 87,98.5C 90.26,101.822 94.26,103.488 99,103.5C 118.614,99.94 136.114,91.94 151.5,79.5C 153.415,79.2155 155.081,79.5489 156.5,80.5C 137.318,96.3374 115.652,107.337 91.5,113.5C 88.5,113.5 85.5,113.5 82.5,113.5C 75.9174,112.075 72.2507,107.908 71.5,101C 72.6706,92.9669 75.6706,85.8002 80.5,79.5 Z"/></g>
</svg>
